<svg xmlns="http://www.w3.org/2000/svg" viewBox="0 0 218.7 100" preserveAspectRatio="xMinYMin meet">
<style type="text/css">
	.st0{fill:#EDC264;}
	.st1{fill:#936616;}
</style>
<path class="st0" d="M209.1,50c5.8-5.2,9.5-12.9,9.5-21.3C218.7,12.8,205.8,0,190,0c-11.7,0-21.7,7-26.2,17h-109
	C50.4,7,40.3,0,28.7,0C12.8,0,0,12.8,0,28.7C0,37.1,3.7,44.8,9.5,50C3.7,55.2,0,62.9,0,71.3C0,87.2,12.8,100,28.7,100
	c11.7,0,21.7-7,26.2-17h109c4.5,10,14.5,17,26.2,17c15.8,0,28.7-12.8,28.7-28.7C218.7,62.9,215,55.2,209.1,50z"/>
<g>
	<path class="st1" d="M74.5,44.5v-1.8l0.7-0.1c0.4,0,0.6-0.2,0.6-0.6V31.8l-1.3-0.1v-1.9h6.3c1.6,0,2.9,0.4,3.8,1.2
		c0.9,0.8,1.4,1.9,1.4,3.5s-0.5,2.7-1.6,3.6s-2.4,1.3-4.1,1.3h-1.9v3.2l2.1,0.1v1.9H74.5z M78.6,37.2h1.6c2.1,0,3.2-0.9,3.2-2.6
		c0-1.1-0.3-1.8-0.8-2.1C82,32.2,81.1,32,79.9,32h-1.3V37.2z"/>
	<path class="st1" d="M99.2,42.8v1.7h-3.6v-1.4c-0.8,1.1-2,1.7-3.6,1.7c-2.3,0-3.4-1.3-3.4-3.8v-5.1c0-0.4-0.2-0.6-0.6-0.6l-0.7,0
		v-1.8h3.9v7c0,0.8,0.1,1.4,0.3,1.8c0.2,0.4,0.7,0.6,1.4,0.6c0.7,0,1.2-0.2,1.7-0.6c0.4-0.4,0.6-0.9,0.6-1.5v-4.6
		c0-0.2,0-0.4-0.1-0.5c-0.1-0.1-0.2-0.2-0.4-0.2l-0.7,0v-1.8h3.9v8.6c0,0.2,0,0.4,0.1,0.5c0.1,0.1,0.2,0.1,0.4,0.2L99.2,42.8z"/>
	<path class="st1" d="M101.5,46.6V35.9c0-0.2,0-0.4-0.1-0.5c-0.1-0.1-0.2-0.1-0.4-0.1l-0.9-0.1v-1.8h3.7v1.4
		c0.2-0.4,0.7-0.8,1.3-1.2c0.6-0.4,1.3-0.6,2.2-0.6c2.7,0,4,1.9,4,5.6c0,2-0.4,3.5-1.3,4.6s-2,1.6-3.5,1.6c-0.9,0-1.7-0.2-2.4-0.6v3
		l1.8,0.1V49h-5.7v-1.7l0.7-0.1c0.2,0,0.4-0.1,0.5-0.2C101.5,47,101.5,46.8,101.5,46.6z M108.5,38.9c0-2.4-0.7-3.7-2.2-3.7
		c-0.6,0-1.1,0.2-1.6,0.6c-0.4,0.4-0.6,0.8-0.6,1.3v5.1c0.6,0.4,1.2,0.5,2,0.5s1.4-0.4,1.8-1.1C108.3,40.9,108.5,40,108.5,38.9z"/>
	<path class="st1" d="M114,46.6V35.9c0-0.2,0-0.4-0.1-0.5c-0.1-0.1-0.2-0.1-0.4-0.1l-0.9-0.1v-1.8h3.7v1.4c0.2-0.4,0.7-0.8,1.3-1.2
		c0.6-0.4,1.3-0.6,2.2-0.6c2.7,0,4,1.9,4,5.6c0,2-0.4,3.5-1.3,4.6s-2,1.6-3.5,1.6c-0.9,0-1.7-0.2-2.4-0.6v3l1.8,0.1V49h-5.7v-1.7
		l0.7-0.1c0.2,0,0.4-0.1,0.5-0.2C114,47,114,46.8,114,46.6z M121,38.9c0-2.4-0.7-3.7-2.2-3.7c-0.6,0-1.1,0.2-1.6,0.6
		c-0.4,0.4-0.6,0.8-0.6,1.3v5.1c0.6,0.4,1.2,0.5,2,0.5s1.4-0.4,1.8-1.1C120.8,40.9,121,40,121,38.9z"/>
	<path class="st1" d="M133.4,44.1v-1.7c-0.8,1.1-2,1.7-3.6,1.7c-2.3,0-3.4-1.3-3.4-3.8v-4.4c0-0.4-0.2-0.6-0.6-0.6l-0.7,0v-1.8h3.9
		v6.3c0,0.8,0.1,1.4,0.3,1.8c0.2,0.4,0.7,0.6,1.4,0.6c0.7,0,1.2-0.2,1.7-0.6c0.4-0.4,0.6-0.9,0.6-1.5v-4c0-0.2,0-0.4-0.1-0.5
		c-0.1-0.1-0.2-0.1-0.4-0.1l-0.7,0v-1.8h3.9v10.6c0,1.8-0.4,3.1-1.3,3.9s-2.2,1.2-3.9,1.2s-3.1-0.2-4.1-0.7v-3.1l2.1-0.2v1.1
		c0,0.4,0.2,0.7,0.5,0.8c0.4,0.1,0.9,0.2,1.5,0.2C132.4,47.3,133.4,46.2,133.4,44.1z"/>
	<path class="st1" d="M61.6,64.8l3.5-10.3l-1.4-0.1v-1.8h5l4.5,12.7h0l1.3,0.1v1.9h-5.7v-1.8l0.8-0.1c0.2,0,0.4-0.1,0.5-0.2
		c0.1-0.1,0.1-0.2,0-0.5l-0.5-1.4h-5.1L64,65.4l1.3,0.1v1.9h-5.1v-1.8l0.7-0.1C61.2,65.4,61.5,65.2,61.6,64.8z M67.2,55.1l-2,6.3
		h4.1L67.2,55.1L67.2,55.1z"/>
	<path class="st1" d="M80.9,55.9c0.6,0,1.2,0.1,1.8,0.3v-2.2c0-0.3-0.2-0.5-0.6-0.5l-0.9-0.1v-1.7h4.1V65c0,0.3,0.2,0.5,0.5,0.5
		l0.8,0v1.8H83V66L83,66c-0.7,1.1-1.7,1.6-3,1.6c-1.7,0-2.8-0.6-3.5-1.7c-0.6-1-0.9-2.3-0.9-3.7c0-1.9,0.5-3.4,1.4-4.6
		C77.9,56.5,79.2,55.9,80.9,55.9z M82.7,63.9v-5.7c-0.5-0.2-1.1-0.4-1.7-0.4c-1,0-1.7,0.4-2.1,1.2c-0.4,0.8-0.7,1.8-0.7,3
		c0,2.5,0.8,3.7,2.4,3.7c0.6,0,1.1-0.2,1.5-0.5S82.7,64.4,82.7,63.9z"/>
	<path class="st1" d="M87.9,61.8c0-1.1,0.2-2,0.5-2.8c0.3-0.8,0.8-1.4,1.3-1.8c1-0.8,2.2-1.2,3.5-1.2c0.9,0,1.6,0.1,2.2,0.4
		s1.1,0.6,1.4,1c0.3,0.4,0.6,0.9,0.9,1.6c0.2,0.7,0.4,1.6,0.4,2.5c0,2-0.5,3.6-1.5,4.6c-1,1-2.2,1.6-3.8,1.6c-1.5,0-2.7-0.5-3.6-1.5
		C88.3,65.2,87.9,63.7,87.9,61.8z M92.9,65.7c1.6,0,2.4-1.3,2.4-3.9c0-1.3-0.2-2.3-0.5-3c-0.4-0.7-1-1-1.8-1s-1.5,0.3-1.9,1
		s-0.6,1.5-0.6,2.6c0,2.1,0.4,3.4,1.1,3.9C92,65.6,92.5,65.7,92.9,65.7z"/>
	<path class="st1" d="M100.7,69.4V58.7c0-0.2,0-0.4-0.1-0.5c-0.1-0.1-0.2-0.1-0.4-0.1L99.3,58v-1.8h3.7v1.4c0.2-0.4,0.7-0.8,1.3-1.2
		c0.6-0.4,1.3-0.6,2.2-0.6c2.7,0,4,1.9,4,5.6c0,2-0.4,3.5-1.3,4.6s-2,1.6-3.5,1.6c-0.9,0-1.7-0.2-2.4-0.6v3l1.8,0.1v1.7h-5.7v-1.7
		l0.7-0.1c0.2,0,0.4-0.1,0.5-0.2C100.7,69.8,100.7,69.6,100.7,69.4z M107.7,61.7c0-2.4-0.7-3.7-2.2-3.7c-0.6,0-1.1,0.2-1.6,0.6
		c-0.4,0.4-0.6,0.8-0.6,1.3V65c0.6,0.4,1.2,0.5,2,0.5s1.4-0.4,1.8-1.1C107.5,63.7,107.7,62.8,107.7,61.7z"/>
	<path class="st1" d="M114.4,53.9h1.4v2.3h2.9l-0.2,1.8h-2.7v5.8c0,0.6,0.1,1.1,0.4,1.4c0.2,0.3,0.6,0.4,1.1,0.4
		c0.5,0,1-0.2,1.5-0.5l0.7,1.7c-0.7,0.5-1.7,0.8-2.8,0.8c-0.7,0-1.2-0.1-1.7-0.3c-0.5-0.2-0.8-0.4-1-0.6c-0.2-0.2-0.4-0.5-0.5-0.9
		c-0.1-0.4-0.2-0.7-0.2-0.9s0-0.6,0-1v-5.9h-1.6l0.2-1.6c0.7-0.1,1.2-0.3,1.6-0.7C113.8,55.3,114.1,54.7,114.4,53.9z"/>
	<path class="st1" d="M124.3,56.2v9.2l1.3,0.1v1.8h-5.2v-1.7l0.7-0.1c0.4,0,0.6-0.3,0.6-0.7v-6.1c0-0.2,0-0.4-0.1-0.5
		c-0.1-0.1-0.2-0.1-0.4-0.1l-0.8,0v-1.8H124.3z M121.5,54.3c-0.3-0.3-0.5-0.7-0.5-1.2c0-0.5,0.2-0.9,0.5-1.2s0.7-0.5,1.2-0.5
		s0.9,0.2,1.2,0.5c0.3,0.3,0.5,0.7,0.5,1.2c0,0.5-0.2,0.9-0.5,1.2c-0.3,0.3-0.7,0.5-1.2,0.5S121.8,54.6,121.5,54.3z"/>
	<path class="st1" d="M126.8,61.8c0-1.1,0.2-2,0.5-2.8c0.3-0.8,0.8-1.4,1.3-1.8c1-0.8,2.2-1.2,3.5-1.2c0.9,0,1.6,0.1,2.2,0.4
		s1.1,0.6,1.4,1s0.6,0.9,0.9,1.6c0.2,0.7,0.4,1.6,0.4,2.5c0,2-0.5,3.6-1.5,4.6c-1,1-2.2,1.6-3.8,1.6s-2.7-0.5-3.6-1.5
		C127.2,65.2,126.8,63.7,126.8,61.8z M131.9,65.7c1.6,0,2.4-1.3,2.4-3.9c0-1.3-0.2-2.3-0.5-3c-0.4-0.7-1-1-1.8-1
		c-0.8,0-1.5,0.3-1.9,1s-0.6,1.5-0.6,2.6c0,2.1,0.4,3.4,1.1,3.9C130.9,65.6,131.4,65.7,131.9,65.7z"/>
	<path class="st1" d="M138.3,58v-1.8h3.7v1.4c0.4-0.5,0.9-1,1.5-1.3s1.3-0.5,2-0.5c1.1,0,2,0.3,2.6,1c0.6,0.6,0.9,1.6,0.9,2.9v5.7
		l1.3,0.1v1.8h-5.2v-1.7l0.7-0.1c0.2,0,0.4-0.1,0.5-0.2c0.1-0.1,0.2-0.3,0.2-0.5v-4.5c0-0.8-0.1-1.4-0.4-1.8
		c-0.2-0.4-0.7-0.6-1.4-0.6c-0.7,0-1.2,0.2-1.7,0.7c-0.4,0.4-0.6,1-0.6,1.6v5.3l1.3,0.1v1.8h-5.2v-1.7l0.7-0.1
		c0.2,0,0.4-0.1,0.5-0.2s0.2-0.3,0.2-0.5v-6.1c0-0.4-0.2-0.7-0.5-0.7L138.3,58z"/>
</g>
</svg>
